# AST/ASF file generated using VICON BodyLanguage
# -----------------------------------------------
:version 1.10
:name VICON
:units
  mass 1.0
  length 0.45
  angle deg
:documentation
   .ast/.asf automatically generated from VICON data using
   VICON BodyBuilder and BodyLanguage model FoxedUp or BRILLIANT.MOD
:root
   order TX TY TZ RX RY RZ
   axis XYZ
   position 0 0 0  
   orientation 0 0 0 
:bonedata
  begin
     id 1 
     name lhipjoint
     direction 0.570549 -0.739093 0.358072 
     length 2.41801 
     axis 0 0 0  XYZ
  end
  begin
     id 2 
     name lfemur
     direction 0.34202 -0.939693 0  
     length 7.44434  
     axis 0 0 20  XYZ
    dof rx ry rz
    limits (-160.0 20.0)
           (-70.0 70.0)
           (-60.0 70.0)
  end
  begin
     id 3 
     name ltibia
     direction 0.34202 -0.939693 0   
     length 7.60047   
     axis 0 0 20   XYZ
    dof rx
    limits (-10.0 170.0)
  end
  begin
     id 4 
     name lfoot
     direction 0.0909041 -0.249757 0.964032   
     length 2.03437   
     axis -90 7.62852e-016 20   XYZ
    dof rx rz
    limits (-45.0 90.0)
           (-70.0 20.0)
  end
  begin
     id 5 
     name ltoes
     direction 1.53547e-011 -4.2174e-011 1   
     length 1.02054   
     axis -90 7.62852e-016 20   XYZ
    dof rx
    limits (-90.0 20.0)
  end
  begin
     id 6 
     name rhipjoint
     direction -0.558096 -0.746754 0.361784   
     length 2.3932  
     axis 0 0 0  XYZ 
  end
  begin
     id 7 
     name rfemur
     direction -0.34202 -0.939693 0   
     length 7.3886   
     axis 0 0 -20   XYZ
    dof rx ry rz
    limits (-160.0 20.0)
           (-70.0 70.0)
           (-70.0 60.0)
  end
  begin
     id 8 
     name rtibia
     direction -0.34202 -0.939693 0   
     length 7.4839   
     axis 0 0 -20   XYZ
    dof rx
    limits (-10.0 170.0)
 end
 begin
     id 9 
     name rfoot
     direction -0.114619 -0.314914 0.942174   
     length 2.25127  
     axis -90 -7.62852e-016 -20   XYZ
    dof rx rz
    limits (-45.0 90.0)
           (-20.0 70.0)
  end
  begin
     id 10 
     name rtoes
     direction -1.53518e-011 -4.21881e-011 1   
     length 1.11821   
     axis -90 -7.62852e-016 -20   XYZ
    dof rx
    limits (-90.0 20.0)
  end
  begin
     id 11 
     name lowerback
     direction -0.00902269 0.996426 -0.0839821   
     length 2.25052   
     axis 0 0 0   XYZ
    dof rx ry rz
    limits (-20.0 45.0)
           (-30.0 30.0)
           (-30.0 30.0)
  end
  begin
     id 12 
     name upperback
     direction 0.0370973 0.999169 -0.0168941   
     length 2.24876   
     axis 0 0 0   XYZ
    dof rx ry rz
    limits (-20.0 45.0)
           (-30.0 30.0)
           (-30.0 30.0)
  end
  begin
     id 13 
     name thorax
     direction 0.0402726 0.998931 0.0227027   
     length 2.26408   
     axis 0 0 0   XYZ
    dof rx ry rz
    limits (-20.0 45.0)
           (-30.0 30.0)
           (-30.0 30.0)
  end
  begin
     id 14 
     name lowerneck
     direction -0.0733697 0.98508 0.155675   
     length 1.58204   
     axis 0 0 0   XYZ
    dof rx ry rz
    limits (-20.0 45.0)
           (-30.0 30.0)
           (-30.0 30.0)
  end
  begin
     id 15 
     name upperneck
     direction 0.0426554 0.993501 -0.105526   
     length 1.61222   
     axis 0 0 0   XYZ
    dof rx ry rz
    limits (-20.0 45.0)
           (-30.0 30.0)
           (-30.0 30.0)
  end
  begin
     id 16
     name head
     direction 0.020792 0.998384 -0.0528868  
     length 1.61527  
     axis 0 0 0   XYZ
    dof rx ry rz
    limits (-20.0 45.0)
           (-30.0 30.0)
           (-30.0 30.0)
  end
  begin
     id 17 
     name lclavicle
     direction 0.967109 0.155462 -0.201325  
     length 3.59357  
     axis 0 0 0   XYZ
    dof ry rz
    limits (-20.0 10.0)
           (0.0 20.0)
  end
  begin
     id 18 
     name lhumerus
     direction 1 -4.48968e-011 2.38195e-027   
     length 5.38154   
     axis 180 -30 -90   XYZ
    dof rx ry rz
    limits (-60.0 90.0)
           (-90.0 90.0)
           (-90.0 90.0)
  end
  begin
     id 19
     name lradius
     direction 1 -4.48961e-011 4.85371e-027   
     length 3.33312   
     axis 180 -30 -90   XYZ
    dof rx
    limits (-10.0 170.0)
  end
  begin
     id 20
     name lwrist
     direction 1 -4.48961e-011 4.76515e-027   
     length 1.66656   
     axis -3.27502e-015 90 90   XYZ
    dof ry
    limits (-180.0 0.0)
 end
  begin
     id 21 
     name lhand
     direction 1 -4.48951e-011 9.53074e-027   
     length 0.710789   
     axis -6.08098e-015 90 90   XYZ
    dof rx rz
    limits (-90.0 90.0)
           (-45.0 45.0)
  end
  begin
     id 22 
     name lfingers
     direction 1 -4.48953e-011 1.90613e-026   
     length 0.573057   
     axis -1.21619e-014 90 90   XYZ
    dof rx
    limits (0.0 90.0)
  end
  begin
     id 23
     name lthumb
     direction 0.707107 -6.34973e-011 0.707107   
     length 0.822798   
     axis -90 45 -9.86923e-015   XYZ
    dof rx rz
    limits (-45.0 45.0)
           (-45.0 45.0)
  end
  begin
     id 24 
     name rclavicle
     direction -0.9585 0.265289 -0.104398   
     length 3.42039  
     axis 0 0 0   XYZ 
    dof ry rz
    limits (-10.0 20.0)
           (-20.0 0.0)
  end
  begin
     id 25 
     name rhumerus
     direction -1 -4.48977e-011 2.21478e-027  
     length 5.16954   
     axis 180 30 90   XYZ
    dof rx ry rz
    limits (-90.0 60.0)
           (-90.0 90.0)
           (-90.0 90.0)
  end
  begin
     id 26 
     name rradius
     direction -1 -4.48967e-011 5.63677e-027   
     length 3.38287   
     axis 180 30 90   XYZ
    dof rx
    limits (-10.0 170.0)
  end
  begin
     id 27 
     name rwrist
     direction -1 -4.48967e-011 4.76501e-027   
     length 1.69144   
     axis -3.27502e-015 -90 -90   XYZ
    dof ry
    limits (-180.0 0.0)
  end
  begin
     id 28
     name rhand
     direction -1 -4.48902e-011 9.53292e-027   
     length 0.817967   
     axis -6.08098e-015 -90 -90   XYZ
    dof rx rz
    limits (-90.0 90.0)
           (-45.0 45.0)
  end
  begin
     id 29
     name rfingers
     direction -1 -4.49012e-011 1.90561e-026   
     length 0.659466   
     axis -1.21619e-014 -90 -90   XYZ
    dof rx
    limits (0.0 90.0)
  end
  begin
     id 30
     name rthumb
     direction -0.707107 -6.34944e-011 0.707107   
     length 0.946865   
     axis -90 -45 9.86923e-015   XYZ
    dof rx rz
    limits (-45.0 45.0)
           (-45.0 45.0)
  end
:hierarchy
  begin
    root lhipjoint rhipjoint lowerback
    lhipjoint lfemur
    lfemur ltibia
    ltibia lfoot
    lfoot ltoes
    rhipjoint rfemur
    rfemur rtibia
    rtibia rfoot
    rfoot rtoes
    lowerback upperback
    upperback thorax
    thorax lowerneck lclavicle rclavicle
    lowerneck upperneck
    upperneck head
    lclavicle lhumerus
    lhumerus lradius
    lradius lwrist
    lwrist lhand lthumb
    lhand lfingers
    rclavicle rhumerus
    rhumerus rradius
    rradius rwrist
    rwrist rhand rthumb
    rhand rfingers
  end

#!OML:ASF F:\twosubjects\two\wednesday\Session 1\Justin1.ASF
:FULLY-SPECIFIED
:DEGREES
116
root 3.38076 17.5904 7.61701 181.231 17.1905 -176.374
lowerback 3.13453 0.545282 4.72971
upperback 1.34876 1.40522 6.52233
thorax -0.436998 0.913038 4.03524
lowerneck -20.5473 -1.69896 -8.79302
upperneck 15.1667 -0.27597 3.0379
head 8.09565 -0.32116 2.41442
rclavicle -2.48481e-014 2.70347e-014
rhumerus 25.4086 13.4022 -65.1476
rradius 32.0396
rwrist -1.07913
rhand -6.65598 25.7134
rfingers 7.12502
rthumb 19.2017 -3.35873
lclavicle -2.48481e-014 2.70347e-014
lhumerus 35.3033 4.78507 48.2377
lradius 34.0634
lwrist -16.8487
lhand 3.78885 33.041
lfingers 7.12502
lthumb 29.2141 60.7677
rfemur 5.60816 6.90894 22.9218
rtibia 19.2451
rfoot -19.4735 -2.13572
rtoes 3.29395
lfemur -29.1899 6.85496 -6.40964
ltibia 26.7915
lfoot -14.1315 4.70576
ltoes -24.5784
117
root 3.3564 17.5707 7.48216 181.356 17.6293 -176.27
lowerback 3.07397 0.47236 4.82488
upperback 1.33886 1.30271 6.50597
thorax -0.407194 0.861073 3.96928
lowerneck -20.4442 -1.65095 -8.97955
upperneck 15.1961 -0.1876 3.15432
head 8.08291 -0.278749 2.49541
rclavicle 2.78299e-015 1.20861e-013
rhumerus 25.2856 13.8457 -65.1479
rradius 32.128
rwrist -1.37957
rhand -6.87176 25.5734
rfingers 7.12502
rthumb 18.9942 -3.51916
lclavicle 2.78299e-015 1.20861e-013
lhumerus 34.8934 4.85416 48.1497
lradius 34.1393
lwrist -16.7468
lhand 3.76143 33.6248
lfingers 7.12502
lthumb 29.1879 61.3561
rfemur 6.11597 7.06 22.7807
rtibia 18.894
rfoot -19.5816 -1.89458
rtoes 2.84737
lfemur -29.0919 6.64754 -6.1224
ltibia 26.0782
lfoot -14.1256 5.45717
ltoes -23.4358
118
root 3.33795 17.5541 7.34836 181.324 18.1819 -176.416
lowerback 2.99939 0.598361 4.61678
upperback 1.38231 1.42669 6.3437
thorax -0.324236 0.91219 3.91336
lowerneck -20.0239 -1.61452 -8.58287
upperneck 14.8743 -0.241855 2.87485
head 7.9057 -0.305119 2.32517
rclavicle 2.6339e-014 -5.56597e-014
rhumerus 24.9832 13.7415 -65.2905
rradius 32.1252
rwrist -1.33499
rhand -7.24089 25.7836
rfingers 7.12502
rthumb 18.6391 -3.34345
lclavicle 2.6339e-014 -5.56597e-014
lhumerus 34.8555 4.56419 48.0236
lradius 34.1061
lwrist -16.6183
lhand 3.03222 33.7472
lfingers 7.12502
lthumb 28.4913 61.5973
rfemur 6.73637 7.33076 22.3776
rtibia 18.4827
rfoot -19.7212 -1.43459
rtoes 2.9365
lfemur -28.9416 6.5289 -6.08846
ltibia 25.4118
lfoot -14.0361 6.41963
ltoes -23.3025
119
root 3.3207 17.5323 7.2189 181.433 18.725 -176.382
lowerback 2.93144 0.656895 4.47273
upperback 1.46491 1.4797 6.30707
thorax -0.204668 0.93579 3.95667
lowerneck -19.8364 -1.50082 -8.1147
upperneck 14.2707 -0.1341 2.3066
head 7.66549 -0.272504 2.06533
rclavicle 2.21645e-014 8.74653e-014
rhumerus 24.8613 13.8463 -65.1916
rradius 32.2932
rwrist -1.35584
rhand -6.94702 25.7659
rfingers 7.12502
rthumb 18.9218 -3.33374
lclavicle 2.21645e-014 8.74653e-014
lhumerus 34.8149 4.57432 47.9369
lradius 33.9899
lwrist -16.5932
lhand 2.61994 33.6279
lfingers 7.12502
lthumb 28.0973 61.5433
rfemur 7.25392 7.67335 22.1905
rtibia 18.0679
rfoot -19.8 -1.22007
rtoes 2.66295
lfemur -28.9159 6.51252 -5.88835
ltibia 24.7497
lfoot -13.7066 7.26307
ltoes -24.2112
120
root 3.29756 17.5113 7.09054 181.681 19.0722 -176.143
lowerback 2.93163 0.615275 4.5465
upperback 1.4657 1.43245 6.35867
thorax -0.202065 0.914979 3.97096
lowerneck -19.9483 -1.46819 -8.23874
upperneck 14.0776 -0.0319464 2.23721
head 7.61504 -0.232653 2.0728
rclavicle 1.15295e-014 1.90833e-014
rhumerus 24.8366 13.8086 -65.2273
rradius 32.3537
rwrist -1.20525
rhand -6.27312 25.7029
rfingers 7.12502
rthumb 19.5698 -3.33214
lclavicle 1.15295e-014 1.90833e-014
lhumerus 34.5858 4.69157 47.9397
lradius 34.0065
lwrist -16.6329
lhand 2.65673 33.6874
lfingers 7.12502
lthumb 28.1325 61.597
rfemur 7.71636 7.73941 22.2052
rtibia 17.62
rfoot -19.7048 -1.38951
rtoes 1.39286
lfemur -29.0242 6.36044 -5.47503
ltibia 24.1845
lfoot -13.4136 7.74232
ltoes -23.5481
121
root 3.27697 17.4911 6.96058 181.897 19.5019 -175.985
lowerback 2.91342 0.687907 4.54956
upperback 1.42316 1.52583 6.34043
thorax -0.238459 0.959122 3.94682
lowerneck -20.2054 -1.55686 -8.69704
upperneck 14.4125 -0.0949223 2.75532
head 7.77342 -0.244016 2.31655
rclavicle -2.48481e-015 -1.43125e-014
rhumerus 24.6672 13.683 -65.2846
rradius 32.3207
rwrist -1.21038
rhand -6.68968 25.9264
rfingers 7.12502
rthumb 19.1692 -3.14892
lclavicle -2.48481e-015 -1.43125e-014
lhumerus 34.3989 4.61427 48.0005
lradius 34.0885
lwrist -16.6837
lhand 2.49798 33.6126
lfingers 7.12502
lthumb 27.9807 61.547
rfemur 8.20851 7.72529 22.1184
rtibia 17.1312
rfoot -19.6249 -1.46708
rtoes -0.346753
lfemur -29.1082 6.51688 -5.22379
ltibia 23.7289
lfoot -13.224 8.18726
ltoes -22.6788
122
root 3.25563 17.466 6.82437 182.099 20.0538 -175.825
lowerback 2.87448 0.80498 4.56895
upperback 1.42118 1.67269 6.30397
thorax -0.222105 1.0301 3.89392
lowerneck -20.5635 -1.62897 -8.86668
upperneck 14.7275 -0.155551 2.99964
head 7.94302 -0.263941 2.4232
rclavicle -1.15295e-014 -9.54166e-015
rhumerus 24.5346 13.5839 -65.2697
rradius 32.2974
rwrist -1.39342
rhand -7.03676 25.9219
rfingers 7.12502
rthumb 18.8355 -3.18619
lclavicle -1.15295e-014 -9.54166e-015
lhumerus 34.3049 4.59498 48.0588
lradius 34.0747
lwrist -16.7087
lhand 2.64198 33.5402
lfingers 7.12502
lthumb 28.1184 61.4522
rfemur 8.67206 7.65264 21.9958
rtibia 16.6525
rfoot -19.5439 -1.47152
rtoes -3.39361
lfemur -29.027 6.52741 -4.94459
ltibia 23.3147
lfoot -13.3269 8.89348
ltoes -22.155
123
root 3.22678 17.4419 6.68547 182.171 20.3097 -175.945
lowerback 2.8335 0.767401 4.4164
upperback 1.4211 1.59448 6.17847
thorax -0.196165 0.982559 3.85124
lowerneck -20.6641 -1.54199 -8.83393
upperneck 14.7546 -0.0303045 2.96501
head 7.96121 -0.206263 2.42255
rclavicle -4.49253e-014 -1.11319e-014
rhumerus 24.4825 13.5974 -65.2516
rradius 32.4015
rwrist -1.56953
rhand -6.56797 25.7351
rfingers 7.12502
rthumb 19.2863 -3.32859
lclavicle -4.49253e-014 -1.11319e-014
lhumerus 34.0224 4.54967 47.824
lradius 34.1477
lwrist -16.4754
lhand 2.69901 33.5966
lfingers 7.12502
lthumb 28.1729 61.4996
rfemur 9.06452 7.20043 21.5503
rtibia 16.3227
rfoot -19.4425 -1.48783
rtoes -5.87359
lfemur -28.8507 5.79275 -4.85419
ltibia 22.8192
lfoot -13.5198 9.71537
ltoes -19.9376
124
root 3.19673 17.4202 6.54879 182.25 20.3968 -176.142
lowerback 2.7416 0.692309 4.21462
upperback 1.35767 1.46062 6.02685
thorax -0.205401 0.904611 3.81055
lowerneck -20.2913 -1.42427 -8.76774
upperneck 14.454 0.0948973 2.84989
head 7.78987 -0.148927 2.38386
rclavicle -5.11871e-014 8.26944e-014
rhumerus 24.3447 13.8861 -65.0002
rradius 32.5415
rwrist -1.77798
rhand -6.5679 25.7782
rfingers 7.12502
rthumb 19.2864 -3.28547
lclavicle -5.11871e-014 8.26944e-014
lhumerus 33.721 4.4826 47.73
lradius 34.1747
lwrist -16.3978
lhand 2.57788 33.7054
lfingers 7.12502
lthumb 28.0571 61.6274
rfemur 9.35921 6.77103 21.0373
rtibia 16.2125
rfoot -19.5727 -1.16385
rtoes -4.97536
lfemur -28.7164 5.05509 -4.89585
ltibia 22.1893
lfoot -13.2221 10.5643
ltoes -19.1778
125
root 3.17233 17.4052 6.41183 182.48 20.8135 -175.998
lowerback 2.59559 0.722442 4.24836
upperback 1.44065 1.47708 5.96944
thorax -0.0359779 0.911932 3.73548
lowerneck -20.3796 -1.39831 -8.58869
upperneck 14.1987 0.147319 2.5312
head 7.71726 -0.13944 2.25163
rclavicle 5.00937e-014 9.06458e-014
rhumerus 24.5635 13.5702 -65.1456
rradius 32.2623
rwrist -1.15896
rhand -6.58658 26.1294
rfingers 7.12502
rthumb 19.2684 -2.93608
lclavicle 5.00937e-014 9.06458e-014
lhumerus 33.6303 4.73844 47.8499
lradius 34.1566
lwrist -16.5184
lhand 2.69124 33.9219
lfingers 7.12502
lthumb 28.1655 61.8261
rfemur 9.5935 7.1215 20.9554
rtibia 16.2641
rfoot -19.8005 -0.847237
rtoes -0.826035
lfemur -28.4882 4.76169 -4.59677
ltibia 21.4908
lfoot -12.8277 11.5219
ltoes -20.0165
